<svg version="1.1" xmlns="http://www.w3.org/2000/svg" style="display: block;" viewBox="0 0 1151 2048" width="1048" height="1864" preserveAspectRatio="none">
<path transform="translate(0,0)" fill="rgb(142,141,142)" d="M 0 0 L 665.051 0 L 669.056 0 L 675.357 0 L 1067.33 0 L 1074.87 0 L 1099.63 0 L 1151 0 L 1151 30.0667 L 1151 226.956 L 1151 417.194 L 1151 501.265 L 1151 597.631 L 1151 771.153 C 1132.36 780.195 1112.57 790.209 1093.71 798.535 L 1093.57 791.38 C 1092.94 794.238 1092.98 796.625 1091.2 798.369 C 1050.35 791.283 1001.38 779.11 959.93 770.24 L 908.512 759.247 C 900.09 757.444 886.15 754.873 878.623 752.061 C 877.468 759.703 871.687 775.096 868.956 783.094 L 849.972 838.722 L 810.687 954.172 C 806.29 967.092 796.187 999.684 790.96 1010.44 L 789.266 1011.49 L 790.621 1013 C 776.287 1056.56 755.07 1103.93 741.522 1146.79 C 740.782 1148.23 737.925 1153.58 737.487 1154.8 C 745.241 1166.47 754.523 1184.05 761.651 1196.7 L 802.944 1270.07 C 808.609 1280.14 833.769 1321.76 836.241 1330.64 L 838.466 1329.07 C 848.538 1332.42 898.288 1336.61 912.152 1338.43 C 981.004 1347.48 1050.68 1354.01 1119.5 1363.03 L 1118.45 1365.54 C 1123.88 1363.16 1143.71 1363.64 1151 1363.44 L 1151 1474.14 L 1151 1729.82 L 1151 1784.57 L 1151 1954.23 L 1151 2042.43 L 1151 2048 L 954.474 2048 L 868.427 2048 L 800.303 2048 L 418.602 2048 L 310.222 2048 L 300.213 2048 L 293.585 2048 L 0 2048 L 0 2041.94 L 0 1845.89 L 0 1817.56 L 0 1623.11 L 0 1469.19 L 0 1259.74 L 0 815.73 L 0 600.108 L 0 300.778 L 0 0 z"/>
<path transform="translate(0,0)" fill="rgb(43,42,43)" d="M 789.266 1011.49 L 790.621 1013 C 776.287 1056.56 755.07 1103.93 741.522 1146.79 C 740.782 1148.23 737.925 1153.58 737.487 1154.8 C 745.241 1166.47 754.523 1184.05 761.651 1196.7 L 802.944 1270.07 C 808.609 1280.14 833.769 1321.76 836.241 1330.64 L 838.466 1329.07 C 848.538 1332.42 898.288 1336.61 912.152 1338.43 C 981.004 1347.48 1050.68 1354.01 1119.5 1363.03 L 1118.45 1365.54 C 1123.88 1363.16 1143.71 1363.64 1151 1363.44 L 1151 1474.14 L 1151 1729.82 L 1151 1784.57 L 1151 1954.23 L 1151 2042.43 L 1151 2048 L 954.474 2048 L 868.427 2048 L 800.303 2048 L 418.602 2048 L 310.222 2048 L 300.213 2048 L 293.585 2048 L 0 2048 L 0 2041.94 L 0 1845.89 L 0 1817.56 L 0 1623.11 L 0 1469.19 L 0 1259.74 C 4.80983 1269.57 9.70257 1294.96 13.5766 1301.39 C 17.7626 1309.48 88.1404 1352.15 100.111 1362.18 C 104.158 1365.58 111.43 1369 115.238 1373.86 L 115.978 1374.06 L 116.13 1373.28 C 120.521 1373.14 165.628 1359.57 172.777 1357.53 C 198.307 1350.41 223.782 1343.11 249.201 1335.61 C 260.895 1332.23 279.828 1327.34 290.687 1323.11 C 291.421 1324.54 292.216 1325.87 292.575 1327.42 L 294.143 1325.43 L 377.005 1377.76 C 382.736 1381.41 402.727 1395.61 407.88 1397.66 L 409.347 1396.29 C 409.405 1392.94 409.944 1388.96 408.367 1386.25 C 406.15 1274.23 399.861 1160.98 397.936 1049 L 397.496 1046.11 C 416.809 1044.89 436.777 1043.01 456.037 1041.06 C 566.709 1029.85 678.741 1023.42 789.266 1011.49 z"/>
<path transform="translate(0,0)" fill="rgb(95,95,95)" d="M 838.466 1329.07 C 848.538 1332.42 898.288 1336.61 912.152 1338.43 C 981.004 1347.48 1050.68 1354.01 1119.5 1363.03 L 1118.45 1365.54 C 1123.88 1363.16 1143.71 1363.64 1151 1363.44 L 1151 1474.14 L 1151 1729.82 L 1151 1784.57 L 1151 1954.23 L 1151 2042.43 L 1151 2048 L 954.474 2048 L 868.427 2048 L 800.303 2048 C 773.465 2039.53 743.714 2033.66 716.468 2026.03 C 707.206 2023.44 690.563 2020 682.188 2016.41 C 681.264 2016.5 679.458 2016.14 678.45 2015.99 C 676.768 2010.74 659.288 1975.29 656.049 1968.64 L 611.315 1877.19 C 604.706 1863.68 595.239 1845.91 589.579 1832.65 L 590.643 1830.81 L 588.87 1829.64 C 603.915 1813.41 624.396 1787.15 639.104 1769.52 L 737.983 1651.15 C 695.436 1650.05 645.506 1654.19 602.709 1653.76 C 590.173 1653.64 495.443 1655.2 489.309 1657.33 C 493.726 1636.19 507.054 1594.79 513.505 1572.38 L 560.708 1408.24 C 563.266 1399.46 579.76 1345.52 579.637 1339.83 C 580.532 1336.12 580.178 1334.91 582.523 1332.47 C 582.524 1335.01 581.439 1338 582.835 1339.86 C 589.779 1349.11 632.429 1422.06 637.922 1424.33 L 638.536 1424.95 C 694.963 1398.81 750.703 1371 807.142 1344.86 C 816.38 1340.58 825.475 1336.06 834.859 1332.1 L 836.241 1330.64 L 838.466 1329.07 z"/>
<path transform="translate(0,0)" fill="rgb(203,202,203)" d="M 737.983 1651.15 C 744.487 1652.68 930.063 1778.63 946.932 1789.93 L 948.119 1791.96 L 948.816 1792.28 C 974.483 1790.63 1001.22 1790.06 1027 1789.04 C 1068.32 1787.19 1109.65 1785.7 1151 1784.57 L 1151 1954.23 L 1151 2042.43 L 1151 2048 L 954.474 2048 L 868.427 2048 L 800.303 2048 C 773.465 2039.53 743.714 2033.66 716.468 2026.03 C 707.206 2023.44 690.563 2020 682.188 2016.41 C 681.264 2016.5 679.458 2016.14 678.45 2015.99 C 676.768 2010.74 659.288 1975.29 656.049 1968.64 L 611.315 1877.19 C 604.706 1863.68 595.239 1845.91 589.579 1832.65 L 590.643 1830.81 L 588.87 1829.64 C 603.915 1813.41 624.396 1787.15 639.104 1769.52 L 737.983 1651.15 z"/>
<path transform="translate(0,0)" fill="rgb(142,141,142)" d="M 948.816 1792.28 C 974.483 1790.63 1001.22 1790.06 1027 1789.04 C 1068.32 1787.19 1109.65 1785.7 1151 1784.57 L 1151 1954.23 L 1151 2042.43 L 1151 2048 L 954.474 2048 C 953.948 2041.91 949.229 2014.41 946.696 2009.08 L 947.686 2008.02 L 947.262 2007.45 C 948.612 2002.82 948.053 1954.59 948.049 1946.86 L 948.119 1791.96 L 948.816 1792.28 z"/>
<path transform="translate(0,0)" fill="rgb(43,42,43)" d="M 948.816 1792.28 C 974.483 1790.63 1001.22 1790.06 1027 1789.04 C 1068.32 1787.19 1109.65 1785.7 1151 1784.57 L 1151 1954.23 C 1103.8 1914.75 1052.54 1876.75 1004.84 1837.6 C 995.19 1829.68 954.694 1799.08 948.816 1792.28 z"/>
<path transform="translate(0,0)" fill="rgb(221,221,221)" d="M 947.686 2008.02 C 960.142 2008.95 973.073 2011.8 985.431 2013.83 C 1040.55 2022.87 1095.84 2033.88 1151 2042.43 L 1151 2048 L 954.474 2048 C 953.948 2041.91 949.229 2014.41 946.696 2009.08 L 947.686 2008.02 z"/>
<path transform="translate(0,0)" fill="rgb(181,179,180)" d="M 737.983 1651.15 C 744.487 1652.68 930.063 1778.63 946.932 1789.93 L 948.119 1791.96 C 921.669 1796.07 885.786 1798.71 858.303 1801.73 L 681.091 1821.28 C 652.227 1824.46 620.375 1827.21 591.77 1831.06 L 590.643 1830.81 L 588.87 1829.64 C 603.915 1813.41 624.396 1787.15 639.104 1769.52 L 737.983 1651.15 z"/>
<path transform="translate(0,0)" fill="rgb(95,95,95)" d="M 816.202 1942.6 C 858.513 1964.04 904.419 1987.2 947.262 2007.45 L 947.686 2008.02 L 946.696 2009.08 C 949.229 2014.41 953.948 2041.91 954.474 2048 L 868.427 2048 L 800.303 2048 C 773.465 2039.53 743.714 2033.66 716.468 2026.03 C 707.206 2023.44 690.563 2020 682.188 2016.41 C 724.548 1991.33 772.683 1967.27 816.202 1942.6 z"/>
<path transform="translate(0,0)" fill="rgb(203,202,203)" d="M 868.427 2048 C 875.517 2043.65 888.682 2037.63 896.576 2033.75 L 946.696 2009.08 C 949.229 2014.41 953.948 2041.91 954.474 2048 L 868.427 2048 z"/>
<path transform="translate(0,0)" fill="rgb(221,221,221)" d="M 590.643 1830.81 L 591.77 1831.06 L 757.501 1913.29 L 796.996 1932.73 C 800.945 1934.67 813.156 1940.38 816.202 1942.6 C 772.683 1967.27 724.548 1991.33 682.188 2016.41 C 681.264 2016.5 679.458 2016.14 678.45 2015.99 C 676.768 2010.74 659.288 1975.29 656.049 1968.64 L 611.315 1877.19 C 604.706 1863.68 595.239 1845.91 589.579 1832.65 L 590.643 1830.81 z"/>
<path transform="translate(0,0)" fill="rgb(221,221,221)" d="M 1118.45 1365.54 C 1123.88 1363.16 1143.71 1363.64 1151 1363.44 L 1151 1474.14 L 1151 1729.82 L 1151 1784.57 C 1109.65 1785.7 1068.32 1787.19 1027 1789.04 C 1001.22 1790.06 974.483 1790.63 948.816 1792.28 L 948.119 1791.96 L 946.932 1789.93 C 947.843 1787.5 949.405 1764.11 949.734 1760.12 L 957.652 1672.98 C 958.416 1664.75 960.96 1631.66 963.252 1625.9 L 964.412 1625.54 C 982.495 1596.81 1000.68 1564.98 1018.12 1535.67 L 1118.49 1367.09 L 1118.45 1365.54 z"/>
<path transform="translate(0,0)" fill="rgb(181,179,180)" d="M 964.412 1625.54 C 966.22 1628.32 1133.64 1721.19 1151 1729.82 L 1151 1784.57 C 1109.65 1785.7 1068.32 1787.19 1027 1789.04 C 1001.22 1790.06 974.483 1790.63 948.816 1792.28 L 948.119 1791.96 L 946.932 1789.93 C 947.843 1787.5 949.405 1764.11 949.734 1760.12 L 957.652 1672.98 C 958.416 1664.75 960.96 1631.66 963.252 1625.9 L 964.412 1625.54 z"/>
<path transform="translate(0,0)" fill="rgb(181,179,180)" d="M 1118.45 1365.54 C 1123.88 1363.16 1143.71 1363.64 1151 1363.44 L 1151 1474.14 C 1142.76 1451.27 1136.47 1422.58 1128.97 1399.13 C 1126.61 1391.78 1122.03 1373.05 1118.49 1367.09 L 1118.45 1365.54 z"/>
<path transform="translate(0,0)" fill="rgb(69,68,70)" d="M 838.466 1329.07 C 848.538 1332.42 898.288 1336.61 912.152 1338.43 C 981.004 1347.48 1050.68 1354.01 1119.5 1363.03 L 1118.45 1365.54 L 1118.49 1367.09 L 1018.12 1535.67 C 1000.68 1564.98 982.495 1596.81 964.412 1625.54 L 963.252 1625.9 C 958.848 1623.17 933.04 1558.46 928.238 1547.09 L 864.545 1395.8 C 860.768 1386.75 841.023 1337.41 836.492 1332.29 L 834.859 1332.1 L 836.241 1330.64 L 838.466 1329.07 z"/>
<path transform="translate(0,0)" fill="rgb(43,42,43)" d="M 638.536 1424.95 C 694.963 1398.81 750.703 1371 807.142 1344.86 C 816.38 1340.58 825.475 1336.06 834.859 1332.1 L 836.492 1332.29 C 834.628 1342.69 826.823 1365.72 823.462 1376.49 L 798.413 1457.12 L 758.733 1586.49 C 752.728 1605.96 745.24 1632.97 738.282 1651.62 C 729.357 1633.38 637.443 1429.33 638.332 1425.51 C 638.377 1425.32 638.468 1425.14 638.536 1424.95 z"/>
<path transform="translate(0,0)" fill="rgb(95,95,95)" d="M 0 1623.11 L 112.204 1641.87 C 127.015 1644.37 153.423 1647.96 167.35 1651.36 L 167.764 1647.03 C 168.435 1650.06 167.945 1650.25 169.774 1652.02 C 175.85 1655.83 203.032 1666.84 211.417 1670.41 L 300.561 1708.38 L 483.407 1786.14 C 516.414 1800.24 552.956 1816.84 586.071 1829.91 L 588.87 1829.64 L 590.643 1830.81 L 589.579 1832.65 C 595.239 1845.91 604.706 1863.68 611.315 1877.19 L 656.049 1968.64 C 659.288 1975.29 676.768 2010.74 678.45 2015.99 C 679.458 2016.14 681.264 2016.5 682.188 2016.41 C 690.563 2020 707.206 2023.44 716.468 2026.03 C 743.714 2033.66 773.465 2039.53 800.303 2048 L 418.602 2048 L 310.222 2048 L 300.213 2048 L 293.585 2048 L 0 2048 L 0 2041.94 L 0 1845.89 L 0 1817.56 L 0 1623.11 z"/>
<path transform="translate(0,0)" fill="rgb(95,95,95)" d="M 586.071 1829.91 L 588.87 1829.64 L 590.643 1830.81 L 589.579 1832.65 C 595.239 1845.91 604.706 1863.68 611.315 1877.19 L 656.049 1968.64 C 659.288 1975.29 676.768 2010.74 678.45 2015.99 C 679.458 2016.14 681.264 2016.5 682.188 2016.41 C 690.563 2020 707.206 2023.44 716.468 2026.03 C 743.714 2033.66 773.465 2039.53 800.303 2048 L 418.602 2048 L 310.222 2048 L 300.213 2048 C 298.525 2041.44 297.581 2034.07 296.248 2027.34 C 283.845 1964.69 273.08 1901.54 260.508 1838.94 C 305.684 1836.56 358.322 1835.86 403.881 1835.05 L 586.071 1829.91 z"/>
<path transform="translate(0,0)" fill="rgb(203,202,203)" d="M 586.071 1829.91 L 588.87 1829.64 L 590.643 1830.81 L 589.579 1832.65 C 595.239 1845.91 604.706 1863.68 611.315 1877.19 L 656.049 1968.64 C 659.288 1975.29 676.768 2010.74 678.45 2015.99 L 677.433 2016.09 C 615.42 1974.63 551.339 1934.73 489.231 1893.32 C 461.691 1874.96 429.619 1855.79 403.156 1836.67 L 403.881 1835.05 L 586.071 1829.91 z"/>
<path transform="translate(0,0)" fill="rgb(181,179,180)" d="M 260.508 1838.94 C 305.684 1836.56 358.322 1835.86 403.881 1835.05 L 403.156 1836.67 C 400.571 1839.38 315.135 2033.68 310.222 2048 L 300.213 2048 C 298.525 2041.44 297.581 2034.07 296.248 2027.34 C 283.845 1964.69 273.08 1901.54 260.508 1838.94 z"/>
<path transform="translate(0,0)" fill="rgb(142,141,142)" d="M 678.45 2015.99 C 679.458 2016.14 681.264 2016.5 682.188 2016.41 C 690.563 2020 707.206 2023.44 716.468 2026.03 C 743.714 2033.66 773.465 2039.53 800.303 2048 L 418.602 2048 C 450.497 2039.53 668.951 2022.22 677.433 2016.09 L 678.45 2015.99 z"/>
<path transform="translate(0,0)" fill="rgb(43,42,43)" d="M 0 1845.89 C 30.7038 1846.39 68.883 1844.4 100.153 1843.39 L 260.508 1838.94 C 273.08 1901.54 283.845 1964.69 296.248 2027.34 C 297.581 2034.07 298.525 2041.44 300.213 2048 L 293.585 2048 L 0 2048 L 0 2041.94 L 0 1845.89 z"/>
<path transform="translate(0,0)" fill="rgb(117,116,117)" d="M 0 1845.89 C 30.7038 1846.39 68.883 1844.4 100.153 1843.39 L 260.508 1838.94 C 273.08 1901.54 283.845 1964.69 296.248 2027.34 C 297.581 2034.07 298.525 2041.44 300.213 2048 L 293.585 2048 L 200.221 1910.82 L 172.467 1869.69 C 168.266 1863.48 160.912 1852.05 156.075 1846.8 C 140.254 1868.34 119.034 1893.5 102.082 1914.65 L 0 2041.94 L 0 1845.89 z"/>
<path transform="translate(0,0)" fill="rgb(142,141,142)" d="M 0 1623.11 L 112.204 1641.87 C 127.015 1644.37 153.423 1647.96 167.35 1651.36 C 156.144 1665.14 125.817 1693.33 111.758 1707.19 L 0 1817.56 L 0 1623.11 z"/>
<path transform="translate(0,0)" fill="rgb(117,116,117)" d="M 0 1259.74 C 4.80983 1269.57 9.70257 1294.96 13.5766 1301.39 C 17.7626 1309.48 88.1404 1352.15 100.111 1362.18 C 104.158 1365.58 111.43 1369 115.238 1373.86 L 115.978 1374.06 L 116.13 1373.28 C 120.521 1373.14 165.628 1359.57 172.777 1357.53 C 198.307 1350.41 223.782 1343.11 249.201 1335.61 C 260.895 1332.23 279.828 1327.34 290.687 1323.11 C 291.421 1324.54 292.216 1325.87 292.575 1327.42 L 294.143 1325.43 L 377.005 1377.76 C 382.736 1381.41 402.727 1395.61 407.88 1397.66 L 398.15 1650.18 L 397.361 1653.6 C 394.843 1655.14 190.668 1651 170.219 1650.95 L 169.774 1652.02 C 167.945 1650.25 168.435 1650.06 167.764 1647.03 L 167.35 1651.36 C 153.423 1647.96 127.015 1644.37 112.204 1641.87 L 0 1623.11 L 0 1469.19 L 0 1259.74 z"/>
<path transform="translate(0,0)" fill="rgb(43,42,43)" d="M 0 1259.74 C 4.80983 1269.57 9.70257 1294.96 13.5766 1301.39 C 17.7626 1309.48 88.1404 1352.15 100.111 1362.18 C 104.158 1365.58 111.43 1369 115.238 1373.86 L 115.978 1374.06 C 120.759 1394.23 124.295 1418.15 128.213 1438.76 L 154.776 1579.71 C 158.43 1599.22 162.987 1628.41 167.764 1647.03 L 167.35 1651.36 C 153.423 1647.96 127.015 1644.37 112.204 1641.87 L 0 1623.11 L 0 1469.19 L 0 1259.74 z"/>
<path transform="translate(0,0)" fill="rgb(181,179,180)" d="M 0 1259.74 C 4.80983 1269.57 9.70257 1294.96 13.5766 1301.39 C 17.7626 1309.48 88.1404 1352.15 100.111 1362.18 C 104.158 1365.58 111.43 1369 115.238 1373.86 C 108.149 1378.78 100.56 1385.35 93.9367 1390.97 C 62.9517 1417.27 30.5914 1442.48 0 1469.19 L 0 1259.74 z"/>
<path transform="translate(0,0)" fill="rgb(142,141,142)" d="M 290.687 1323.11 L 201.827 1563.96 L 179.991 1622.76 C 178.159 1627.7 170.79 1646.74 170.219 1650.95 L 169.774 1652.02 C 167.945 1650.25 168.435 1650.06 167.764 1647.03 C 162.987 1628.41 158.43 1599.22 154.776 1579.71 L 128.213 1438.76 C 124.295 1418.15 120.759 1394.23 115.978 1374.06 L 116.13 1373.28 C 120.521 1373.14 165.628 1359.57 172.777 1357.53 C 198.307 1350.41 223.782 1343.11 249.201 1335.61 C 260.895 1332.23 279.828 1327.34 290.687 1323.11 z"/>
<path transform="translate(0,0)" fill="rgb(69,68,70)" d="M 292.575 1327.42 L 294.143 1325.43 L 377.005 1377.76 C 382.736 1381.41 402.727 1395.61 407.88 1397.66 L 398.15 1650.18 C 394.161 1640.81 388.78 1622.66 385.472 1612.5 L 362.741 1542.46 L 292.575 1327.42 z"/>
<path transform="translate(0,0)" fill="rgb(95,95,95)" d="M 397.936 1049 C 406.318 1060.2 416.92 1078.04 424.597 1090.17 L 470.873 1163.4 C 506.117 1219.16 546.566 1279.92 580.03 1336.11 C 540.899 1349.49 501.85 1363.11 462.886 1376.98 C 452.385 1380.69 417.021 1392.42 409.347 1396.29 C 409.405 1392.94 409.944 1388.96 408.367 1386.25 C 406.15 1274.23 399.861 1160.98 397.936 1049 z"/>
<path transform="translate(0,0)" fill="rgb(221,221,221)" d="M 737.487 1154.8 C 745.241 1166.47 754.523 1184.05 761.651 1196.7 L 802.944 1270.07 C 808.609 1280.14 833.769 1321.76 836.241 1330.64 L 834.859 1332.1 C 825.475 1336.06 816.38 1340.58 807.142 1344.86 C 750.703 1371 694.963 1398.81 638.536 1424.95 L 637.922 1424.33 C 649.446 1397.03 663.073 1356.69 673.609 1328.2 L 737.487 1154.8 z"/>
<path transform="translate(0,0)" fill="rgb(203,202,203)" d="M 579.637 1339.83 C 579.76 1345.52 563.266 1399.46 560.708 1408.24 L 513.505 1572.38 C 507.054 1594.79 493.726 1636.19 489.309 1657.33 C 483.95 1658.27 464.961 1657.42 458.712 1657.27 L 398.924 1655.98 C 417.207 1625.84 436.035 1591.19 453.725 1560.2 L 579.637 1339.83 z"/>
<path transform="translate(0,0)" fill="rgb(203,202,203)" d="M 0 600.108 C 9.25013 589.429 93.527 490.798 97.7429 489.175 L 98.3884 490.728 C 114.53 493.119 157.929 506.356 175.142 511.1 L 332.057 553.918 C 353.635 559.823 395.66 572.586 416.085 576.359 L 416.518 576.786 L 568.022 617.618 C 589.033 623.33 629.66 635.628 649.601 639.18 L 649.746 641.369 C 630.906 673.794 606.935 710.077 586.797 742.139 L 461.331 942.011 L 419.974 1007.58 C 414.937 1015.54 401.923 1035.37 398.331 1043.32 L 397.496 1046.11 L 397.936 1049 C 399.861 1160.98 406.15 1274.23 408.367 1386.25 C 409.944 1388.96 409.405 1392.94 409.347 1396.29 L 407.88 1397.66 C 402.727 1395.61 382.736 1381.41 377.005 1377.76 L 294.143 1325.43 L 292.575 1327.42 C 292.216 1325.87 291.421 1324.54 290.687 1323.11 C 279.828 1327.34 260.895 1332.23 249.201 1335.61 C 223.782 1343.11 198.307 1350.41 172.777 1357.53 C 165.628 1359.57 120.521 1373.14 116.13 1373.28 L 115.978 1374.06 L 115.238 1373.86 C 111.43 1369 104.158 1365.58 100.111 1362.18 C 88.1404 1352.15 17.7626 1309.48 13.5766 1301.39 C 9.70257 1294.96 4.80983 1269.57 0 1259.74 L 0 815.73 L 0 600.108 z"/>
<path transform="translate(0,0)" fill="rgb(181,179,180)" d="M 0 815.73 C 66.6244 838.285 136.931 858.835 204.168 880.48 L 205.301 877.169 L 205.857 877.399 C 206.04 878.69 206.375 879.851 207.403 880.745 C 242.851 911.567 278.266 942.502 314.195 972.76 C 314.816 973.283 315.885 973.843 316.597 974.235 L 316.722 975.307 C 313.818 978.906 310.725 1057.71 308.272 1070.36 L 301.612 1160.3 C 300.915 1169.42 296.923 1208.04 299.378 1212.9 C 297.617 1216.69 296.845 1219.11 298.514 1223.25 C 296.863 1243.11 295.359 1262.99 294.002 1282.88 C 293.389 1291.18 289.904 1319.21 294.143 1325.43 L 292.575 1327.42 C 292.216 1325.87 291.421 1324.54 290.687 1323.11 C 279.828 1327.34 260.895 1332.23 249.201 1335.61 C 223.782 1343.11 198.307 1350.41 172.777 1357.53 C 165.628 1359.57 120.521 1373.14 116.13 1373.28 L 115.978 1374.06 L 115.238 1373.86 C 111.43 1369 104.158 1365.58 100.111 1362.18 C 88.1404 1352.15 17.7626 1309.48 13.5766 1301.39 C 9.70257 1294.96 4.80983 1269.57 0 1259.74 L 0 815.73 z"/>
<path transform="translate(0,0)" fill="rgb(203,202,203)" d="M 91.0653 1135.28 L 90.8943 1135.63 L 91.4003 1136.47 C 102.614 1131.51 108.316 1130.75 119.832 1127.32 L 161.63 1114.6 C 209.738 1099.86 259.939 1084.03 308.272 1070.36 L 301.612 1160.3 C 300.915 1169.42 296.923 1208.04 299.378 1212.9 C 297.617 1216.69 296.845 1219.11 298.514 1223.25 C 296.863 1243.11 295.359 1262.99 294.002 1282.88 C 293.389 1291.18 289.904 1319.21 294.143 1325.43 L 292.575 1327.42 C 292.216 1325.87 291.421 1324.54 290.687 1323.11 C 279.828 1327.34 260.895 1332.23 249.201 1335.61 C 223.782 1343.11 198.307 1350.41 172.777 1357.53 C 165.628 1359.57 120.521 1373.14 116.13 1373.28 L 115.978 1374.06 L 115.238 1373.86 C 111.43 1369 104.158 1365.58 100.111 1362.18 C 88.1404 1352.15 17.7626 1309.48 13.5766 1301.39 L 63.8507 1190.37 C 67.3874 1182.55 82.8062 1147.06 86.8667 1141.49 L 87.6258 1137.85 C 87.7319 1137.37 88.8755 1135 89.1568 1134.38 L 91.0653 1135.28 z"/>
<path transform="translate(0,0)" fill="rgb(95,95,95)" d="M 91.0653 1135.28 L 90.8943 1135.63 L 91.4003 1136.47 C 102.614 1131.51 108.316 1130.75 119.832 1127.32 L 161.63 1114.6 C 209.738 1099.86 259.939 1084.03 308.272 1070.36 L 301.612 1160.3 C 300.915 1169.42 296.923 1208.04 299.378 1212.9 C 297.617 1216.69 296.845 1219.11 298.514 1223.25 C 296.863 1243.11 295.359 1262.99 294.002 1282.88 C 293.389 1291.18 289.904 1319.21 294.143 1325.43 L 292.575 1327.42 C 292.216 1325.87 291.421 1324.54 290.687 1323.11 C 287.781 1319.01 273.858 1306.76 269.317 1302.66 L 229.817 1266.97 C 182.846 1224.38 135.133 1179.53 87.6258 1137.85 C 87.7319 1137.37 88.8755 1135 89.1568 1134.38 L 91.0653 1135.28 z"/>
<path transform="translate(0,0)" fill="rgb(117,116,117)" d="M 13.5766 1301.39 L 63.8507 1190.37 C 67.3874 1182.55 82.8062 1147.06 86.8667 1141.49 C 87.3984 1149.73 88.5324 1158.13 89.6406 1166.31 C 98.9655 1235.2 106.585 1304.43 116.13 1373.28 L 115.978 1374.06 L 115.238 1373.86 C 111.43 1369 104.158 1365.58 100.111 1362.18 C 88.1404 1352.15 17.7626 1309.48 13.5766 1301.39 z"/>
<path transform="translate(0,0)" fill="rgb(142,141,142)" d="M 205.301 877.169 L 205.857 877.399 C 206.04 878.69 206.375 879.851 207.403 880.745 C 242.851 911.567 278.266 942.502 314.195 972.76 C 314.816 973.283 315.885 973.843 316.597 974.235 L 316.722 975.307 C 313.818 978.906 310.725 1057.71 308.272 1070.36 C 259.939 1084.03 209.738 1099.86 161.63 1114.6 L 119.832 1127.32 C 108.316 1130.75 102.614 1131.51 91.4003 1136.47 L 90.8943 1135.63 L 91.0653 1135.28 L 89.1568 1134.38 C 93.1752 1127.33 100.509 1109.73 104.096 1101.78 L 131.701 1040.97 C 155.314 988.751 182.221 932.669 204.168 880.48 L 205.301 877.169 z"/>
<path transform="translate(0,0)" fill="rgb(69,68,70)" d="M 91.0653 1135.28 C 93.0285 1132.67 311.135 976.035 316.597 974.235 L 316.722 975.307 C 313.818 978.906 310.725 1057.71 308.272 1070.36 C 259.939 1084.03 209.738 1099.86 161.63 1114.6 L 119.832 1127.32 C 108.316 1130.75 102.614 1131.51 91.4003 1136.47 L 90.8943 1135.63 L 91.0653 1135.28 z"/>
<path transform="translate(0,0)" fill="rgb(181,179,180)" d="M 0 600.108 C 9.25013 589.429 93.527 490.798 97.7429 489.175 L 98.3884 490.728 C 114.53 493.119 157.929 506.356 175.142 511.1 L 332.057 553.918 C 353.635 559.823 395.66 572.586 416.085 576.359 L 416.518 576.786 C 410.878 580.538 293.013 753.68 280.138 771.392 C 255.417 801.823 230.589 846.458 205.857 877.399 L 205.301 877.169 L 204.168 880.48 C 136.931 858.835 66.6244 838.285 0 815.73 L 0 600.108 z"/>
<path transform="translate(0,0)" fill="rgb(117,116,117)" d="M 0 600.108 C 9.25013 589.429 93.527 490.798 97.7429 489.175 L 98.3884 490.728 C 103.6 508.355 108.554 526.294 113.319 544.059 C 143.129 655.204 176.112 765.904 205.301 877.169 L 204.168 880.48 C 136.931 858.835 66.6244 838.285 0 815.73 L 0 600.108 z"/>
<path transform="translate(0,0)" fill="rgb(221,221,221)" d="M 416.518 576.786 L 568.022 617.618 C 589.033 623.33 629.66 635.628 649.601 639.18 L 649.746 641.369 C 623.473 649.113 588.607 663.016 561.968 672.422 L 368.896 740.742 L 314.34 760.312 C 305.142 763.624 289.182 769.739 280.138 771.392 C 293.013 753.68 410.878 580.538 416.518 576.786 z"/>
<path transform="translate(0,0)" fill="rgb(43,42,43)" d="M 316.722 975.307 C 343.49 998.018 369.805 1021.57 396.616 1044.13 C 367.642 1098.44 330.357 1158.78 299.378 1212.9 C 296.923 1208.04 300.915 1169.42 301.612 1160.3 L 308.272 1070.36 C 310.725 1057.71 313.818 978.906 316.722 975.307 z"/>
<path transform="translate(0,0)" fill="rgb(117,116,117)" d="M 298.514 1223.25 C 311.288 1240.73 403.884 1391.83 407.802 1394.01 C 408.743 1391.01 408.5 1389.33 408.367 1386.25 C 409.944 1388.96 409.405 1392.94 409.347 1396.29 L 407.88 1397.66 C 402.727 1395.61 382.736 1381.41 377.005 1377.76 L 294.143 1325.43 C 289.904 1319.21 293.389 1291.18 294.002 1282.88 C 295.359 1262.99 296.863 1243.11 298.514 1223.25 z"/>
<path transform="translate(0,0)" fill="rgb(43,42,43)" d="M 0 0 L 665.051 0 L 284.685 328.061 L 163.212 432.887 C 142.698 450.595 119.369 471.855 98.6668 488.378 L 97.7429 489.175 C 93.527 490.798 9.25013 589.429 0 600.108 L 0 300.778 L 0 0 z"/>
<path transform="translate(0,0)" fill="rgb(69,68,70)" d="M 0 300.778 C 16.3887 325.786 89.7047 482.686 98.6668 488.378 L 97.7429 489.175 C 93.527 490.798 9.25013 589.429 0 600.108 L 0 300.778 z"/>
<path transform="translate(0,0)" fill="rgb(95,95,95)" d="M 1137.07 605.097 C 1140.69 601.74 1146.41 599.298 1151 597.631 L 1151 771.153 C 1132.36 780.195 1112.57 790.209 1093.71 798.535 L 1093.57 791.38 C 1092.94 794.238 1092.98 796.625 1091.2 798.369 C 1050.35 791.283 1001.38 779.11 959.93 770.24 L 908.512 759.247 C 900.09 757.444 886.15 754.873 878.623 752.061 C 877.468 759.703 871.687 775.096 868.956 783.094 L 849.972 838.722 L 810.687 954.172 C 806.29 967.092 796.187 999.684 790.96 1010.44 L 789.266 1011.49 C 678.741 1023.42 566.709 1029.85 456.037 1041.06 C 436.777 1043.01 416.809 1044.89 397.496 1046.11 L 398.331 1043.32 C 401.923 1035.37 414.937 1015.54 419.974 1007.58 L 461.331 942.011 L 586.797 742.139 C 606.935 710.077 630.906 673.794 649.746 641.369 L 649.601 639.18 L 650.265 637.928 L 651.667 638.862 C 707.923 665.864 814.553 719.944 875.984 749.387 C 876.608 749.259 877.232 749.131 877.856 749.003 C 882.015 745.701 894.686 738.982 899.963 736.03 L 941.921 712.628 L 1084.04 633.192 C 1091.55 629.029 1131.48 607.513 1135.79 603.742 L 1137.07 605.097 z"/>
<path transform="translate(0,0)" fill="rgb(221,221,221)" d="M 398.331 1043.32 C 406.354 1039.79 427.257 1026.31 435.938 1020.99 L 510.015 975.824 L 788.345 806.498 L 849.649 768.918 C 854.559 765.908 874.253 753.412 878.623 752.061 C 877.468 759.703 871.687 775.096 868.956 783.094 L 849.972 838.722 L 810.687 954.172 C 806.29 967.092 796.187 999.684 790.96 1010.44 L 789.266 1011.49 C 678.741 1023.42 566.709 1029.85 456.037 1041.06 C 436.777 1043.01 416.809 1044.89 397.496 1046.11 L 398.331 1043.32 z"/>
<path transform="translate(0,0)" fill="rgb(142,141,142)" d="M 1137.07 605.097 C 1140.69 601.74 1146.41 599.298 1151 597.631 L 1151 771.153 C 1132.36 780.195 1112.57 790.209 1093.71 798.535 L 1093.57 791.38 C 1097.64 779.643 1103.21 749.683 1106.51 736.392 C 1117.21 693.308 1125.84 647.941 1137.07 605.097 z"/>
<path transform="translate(0,0)" fill="rgb(43,42,43)" d="M 1151 226.956 L 1151 417.194 L 1151 501.265 L 1151 597.631 C 1146.41 599.298 1140.69 601.74 1137.07 605.097 L 1135.79 603.742 C 1131.48 607.513 1091.55 629.029 1084.04 633.192 L 941.921 712.628 L 899.963 736.03 C 894.686 738.982 882.015 745.701 877.856 749.003 C 877.232 749.131 876.608 749.259 875.984 749.387 C 814.553 719.944 707.923 665.864 651.667 638.862 C 671.405 622.952 693.981 602.252 713.467 585.37 L 842.82 473.463 L 843.519 472.558 L 1025.2 315.171 L 1026.62 315.751 C 1028.81 312.726 1139.99 234.891 1151 226.956 z"/>
<path transform="translate(0,0)" fill="rgb(203,202,203)" d="M 1151 226.956 L 1151 417.194 L 1151 501.265 L 1151 597.631 C 1146.41 599.298 1140.69 601.74 1137.07 605.097 L 1135.79 603.742 C 1039.65 561.297 938.481 516.763 843.519 472.558 L 1025.2 315.171 L 1026.62 315.751 C 1028.81 312.726 1139.99 234.891 1151 226.956 z"/>
<path transform="translate(0,0)" fill="rgb(117,116,117)" d="M 1025.2 315.171 L 1026.62 315.751 L 1027.1 316.712 L 971.145 527.529 C 984.9 526.007 999.023 523.934 1012.71 521.782 C 1058.68 514.555 1105.08 508.677 1151 501.265 L 1151 597.631 C 1146.41 599.298 1140.69 601.74 1137.07 605.097 L 1135.79 603.742 C 1039.65 561.297 938.481 516.763 843.519 472.558 L 1025.2 315.171 z"/>
<path transform="translate(0,0)" fill="rgb(181,179,180)" d="M 1151 226.956 L 1151 417.194 C 1120.86 394.302 1089.99 365.761 1059.84 342.467 C 1052.66 336.925 1033.7 320.031 1027.1 316.712 L 1026.62 315.751 C 1028.81 312.726 1139.99 234.891 1151 226.956 z"/>
<path transform="translate(0,0)" fill="rgb(117,116,117)" d="M 651.667 638.862 C 671.405 622.952 693.981 602.252 713.467 585.37 L 842.82 473.463 C 854.625 563.115 868.08 659.407 877.856 749.003 C 877.232 749.131 876.608 749.259 875.984 749.387 C 814.553 719.944 707.923 665.864 651.667 638.862 z"/>
<path transform="translate(0,0)" fill="rgb(69,68,70)" d="M 675.357 0 L 1067.33 0 L 1074.87 0 L 1099.63 0 L 1151 0 L 1151 30.0667 L 1151 226.956 C 1139.99 234.891 1028.81 312.726 1026.62 315.751 L 1025.2 315.171 L 1025.27 314.095 C 956.765 313.919 886.268 317.899 817.5 318.134 C 809.688 319.128 802.612 318.948 794.758 318.921 C 797.074 318.541 798.7 318.209 800.971 317.617 C 801.108 317.074 801.245 316.531 801.382 315.988 C 771.394 241.386 701.007 64.5195 675.357 0 z"/>
<path transform="translate(0,0)" fill="rgb(117,116,117)" d="M 675.357 0 L 1067.33 0 L 898.5 202.849 L 836.855 276.948 C 826.457 289.457 812.624 305.161 803.192 317.932 C 807.41 317.944 813.438 317.777 817.5 318.134 C 809.688 319.128 802.612 318.948 794.758 318.921 C 797.074 318.541 798.7 318.209 800.971 317.617 C 801.108 317.074 801.245 316.531 801.382 315.988 C 771.394 241.386 701.007 64.5195 675.357 0 z"/>
<path transform="translate(0,0)" fill="rgb(142,141,142)" d="M 1074.87 0 L 1099.63 0 L 1151 0 L 1151 30.0667 L 1151 226.956 C 1139.99 234.891 1028.81 312.726 1026.62 315.751 L 1025.2 315.171 L 1025.27 314.095 C 1028.2 311.162 1031.69 282.112 1032.58 276.307 L 1043.01 208.091 L 1074.87 0 z"/>
<path transform="translate(0,0)" fill="rgb(117,116,117)" d="M 1099.63 0 L 1151 0 L 1151 30.0667 C 1135.98 19.7083 1115.59 10.3329 1099.63 0 z"/>
<path transform="translate(0,0)" fill="rgb(203,202,203)" d="M 817.5 318.134 C 886.268 317.899 956.765 313.919 1025.27 314.095 L 1025.2 315.171 L 843.519 472.558 L 842.82 473.463 L 713.467 585.37 C 693.981 602.252 671.405 622.952 651.667 638.862 L 650.265 637.928 L 649.601 639.18 C 629.66 635.628 589.033 623.33 568.022 617.618 L 416.518 576.786 L 416.085 576.359 C 419.918 564.834 432.959 537.623 438.486 525.078 L 483.835 421.569 L 511.991 357.374 C 514.946 350.575 523.108 330.583 526.238 325.839 L 527.357 326.119 C 529.591 324.353 533.316 324.445 536.373 324.149 L 794.758 318.921 C 802.612 318.948 809.688 319.128 817.5 318.134 z"/>
<path transform="translate(0,0)" fill="rgb(69,68,70)" d="M 416.085 576.359 C 419.918 564.834 432.959 537.623 438.486 525.078 L 483.835 421.569 L 511.991 357.374 C 514.946 350.575 523.108 330.583 526.238 325.839 L 527.357 326.119 L 608.598 531.847 C 621.376 564.202 639.344 605.961 650.265 637.928 L 649.601 639.18 C 629.66 635.628 589.033 623.33 568.022 617.618 L 416.518 576.786 L 416.085 576.359 z"/>
<path transform="translate(0,0)" fill="rgb(69,68,70)" d="M 669.056 0 L 675.357 0 C 701.007 64.5195 771.394 241.386 801.382 315.988 C 801.245 316.531 801.108 317.074 800.971 317.617 C 798.7 318.209 797.074 318.541 794.758 318.921 L 536.373 324.149 C 533.316 324.19 531.643 324.461 528.811 323.285 C 528.047 320.961 527.66 319.975 528.847 317.271 L 615.006 122.538 C 631.671 84.4835 651.003 36.6325 669.056 0 z"/>
<path transform="translate(0,0)" fill="rgb(43,42,43)" d="M 1151 771.153 L 1151 1029.84 L 1151 1106.17 L 1151 1363.44 C 1143.71 1363.64 1123.88 1363.16 1118.45 1365.54 L 1119.5 1363.03 C 1050.68 1354.01 981.004 1347.48 912.152 1338.43 C 898.288 1336.61 848.538 1332.42 838.466 1329.07 L 836.241 1330.64 C 833.769 1321.76 808.609 1280.14 802.944 1270.07 L 761.651 1196.7 C 754.523 1184.05 745.241 1166.47 737.487 1154.8 C 737.925 1153.58 740.782 1148.23 741.522 1146.79 C 746.094 1146.15 796.693 1093.52 803.613 1086.57 C 847.599 1042.12 891.816 997.898 936.262 953.908 C 986.281 901.541 1040.9 850.725 1091.2 798.369 C 1092.98 796.625 1092.94 794.238 1093.57 791.38 L 1093.71 798.535 C 1112.57 790.209 1132.36 780.195 1151 771.153 z"/>
<path transform="translate(0,0)" fill="rgb(117,116,117)" d="M 1151 771.153 L 1151 1029.84 L 1151 1106.17 L 1151 1363.44 C 1143.71 1363.64 1123.88 1363.16 1118.45 1365.54 L 1119.5 1363.03 L 1118.4 1359.31 C 1100.08 1320.15 1082.26 1278.26 1064.65 1238.62 L 939.539 957.291 L 937.33 955.159 L 936.262 953.908 C 986.281 901.541 1040.9 850.725 1091.2 798.369 C 1092.98 796.625 1092.94 794.238 1093.57 791.38 L 1093.71 798.535 C 1112.57 790.209 1132.36 780.195 1151 771.153 z"/>
<path transform="translate(0,0)" fill="rgb(181,179,180)" d="M 939.539 957.291 C 943.973 958.14 971.752 976.119 978.087 980.084 L 1079.41 1043.32 C 1092.64 1051.59 1117.77 1068.45 1130.03 1074.56 L 1121.98 1278.39 L 1120.32 1328.72 C 1120.08 1336.15 1119.8 1352.48 1118.4 1359.31 C 1100.08 1320.15 1082.26 1278.26 1064.65 1238.62 L 939.539 957.291 z"/>
<path transform="translate(0,0)" fill="rgb(221,221,221)" d="M 1151 771.153 L 1151 1029.84 L 1151 1106.17 C 1147.15 1099.56 1131.53 1076.57 1131.69 1071.23 C 1129.85 1063.82 1128.28 1049.61 1127.2 1041.61 L 1120.21 990.049 C 1111.51 926.818 1103.43 861.492 1093.71 798.535 C 1112.57 790.209 1132.36 780.195 1151 771.153 z"/>
<path transform="translate(0,0)" fill="rgb(43,42,43)" d="M 1131.69 1071.23 C 1135.11 1062.49 1146.69 1037.9 1151 1029.84 L 1151 1106.17 C 1147.15 1099.56 1131.53 1076.57 1131.69 1071.23 z"/>
<path transform="translate(0,0)" fill="rgb(142,141,142)" d="M 936.262 953.908 L 937.33 955.159 C 933.754 974.047 925.43 1001.71 920.347 1020.87 L 888.359 1141.53 L 855.947 1263.99 C 850.996 1282.76 844.441 1311.23 838.466 1329.07 L 836.241 1330.64 C 833.769 1321.76 808.609 1280.14 802.944 1270.07 L 761.651 1196.7 C 754.523 1184.05 745.241 1166.47 737.487 1154.8 C 737.925 1153.58 740.782 1148.23 741.522 1146.79 C 746.094 1146.15 796.693 1093.52 803.613 1086.57 C 847.599 1042.12 891.816 997.898 936.262 953.908 z"/>
<path transform="translate(0,0)" fill="rgb(181,179,180)" d="M 878.623 752.061 C 886.15 754.873 900.09 757.444 908.512 759.247 L 959.93 770.24 C 1001.38 779.11 1050.35 791.283 1091.2 798.369 C 1040.9 850.725 986.281 901.541 936.262 953.908 C 891.816 997.898 847.599 1042.12 803.613 1086.57 C 796.693 1093.52 746.094 1146.15 741.522 1146.79 C 755.07 1103.93 776.287 1056.56 790.621 1013 L 789.266 1011.49 L 790.96 1010.44 C 796.187 999.684 806.29 967.092 810.687 954.172 L 849.972 838.722 L 868.956 783.094 C 871.687 775.096 877.468 759.703 878.623 752.061 z"/>
</svg>