<?xml version="1.0" standalone="no"?>
<!DOCTYPE svg PUBLIC "-//W3C//DTD SVG 20010904//EN"
 "http://www.w3.org/TR/2001/REC-SVG-20010904/DTD/svg10.dtd">
<svg version="1.0" xmlns="http://www.w3.org/2000/svg"
 width="98.000000pt" height="98.000000pt" viewBox="0 0 98.000000 98.000000"
 preserveAspectRatio="xMidYMid meet">
<metadata>
Created by potrace 1.16, written by Peter Selinger 2001-2019
</metadata>
<g transform="translate(0.000000,98.000000) scale(0.100000,-0.100000)"
fill="#000000" stroke="none">
<path d="M373 966 c-84 -21 -164 -67 -228 -131 -270 -270 -143 -724 230 -820
349 -89 680 242 590 590 -43 165 -157 291 -313 347 -72 25 -208 32 -279 14z
m157 -388 c0 -58 2 -65 37 -100 41 -42 48 -88 18 -116 -17 -16 -17 -16 -12 1
8 21 -17 87 -32 87 -6 0 -11 -17 -11 -37 0 -49 -32 -83 -77 -83 -35 0 -63 19
-63 42 0 10 3 9 10 -2 6 -10 10 -11 10 -2 0 6 11 12 24 12 28 0 36 16 36 71 0
33 -6 46 -35 73 -35 33 -44 66 -26 94 6 10 10 5 14 -17 4 -16 15 -35 27 -41
19 -10 20 -8 20 35 0 43 1 45 30 45 l30 0 0 -62z"/>
</g>
</svg>
